<mxfile host="app.diagrams.net" modified="2024-04-28T06:58:51.149Z" agent="5.0 (Windows NT 10.0; Win64; x64) AppleWebKit/537.36 (KHTML, like Gecko) Chrome/124.0.0.0 Safari/537.36 Edg/124.0.0.0" etag="pc0d--2keotNa_QBGieA" version="17.4.5" type="github">
  <diagram id="Kplhv233n_OKXCSzgVqn" name="Page-1">
    <mxGraphModel dx="672" dy="429" grid="1" gridSize="10" guides="1" tooltips="1" connect="1" arrows="1" fold="1" page="1" pageScale="1" pageWidth="827" pageHeight="1169" math="0" shadow="0">
      <root>
        <mxCell id="0" />
        <mxCell id="1" parent="0" />
        <mxCell id="Q3aqtfKfr0uPTEONbig2-4" value="完成PRD" style="edgeStyle=orthogonalEdgeStyle;rounded=0;orthogonalLoop=1;jettySize=auto;html=1;" edge="1" parent="1" source="Q3aqtfKfr0uPTEONbig2-2" target="Q3aqtfKfr0uPTEONbig2-3">
          <mxGeometry relative="1" as="geometry" />
        </mxCell>
        <mxCell id="Q3aqtfKfr0uPTEONbig2-2" value="开始" style="ellipse;whiteSpace=wrap;html=1;aspect=fixed;" vertex="1" parent="1">
          <mxGeometry x="260" y="20" width="40" height="40" as="geometry" />
        </mxCell>
        <mxCell id="Q3aqtfKfr0uPTEONbig2-6" value="需求评估" style="edgeStyle=orthogonalEdgeStyle;rounded=0;orthogonalLoop=1;jettySize=auto;html=1;" edge="1" parent="1" source="Q3aqtfKfr0uPTEONbig2-3" target="Q3aqtfKfr0uPTEONbig2-5">
          <mxGeometry relative="1" as="geometry" />
        </mxCell>
        <mxCell id="Q3aqtfKfr0uPTEONbig2-3" value="待评估" style="rounded=1;whiteSpace=wrap;html=1;" vertex="1" parent="1">
          <mxGeometry x="220" y="130" width="120" height="60" as="geometry" />
        </mxCell>
        <mxCell id="Q3aqtfKfr0uPTEONbig2-8" value="开始开发" style="edgeStyle=orthogonalEdgeStyle;rounded=0;orthogonalLoop=1;jettySize=auto;html=1;" edge="1" parent="1" source="Q3aqtfKfr0uPTEONbig2-5" target="Q3aqtfKfr0uPTEONbig2-7">
          <mxGeometry relative="1" as="geometry" />
        </mxCell>
        <mxCell id="Q3aqtfKfr0uPTEONbig2-5" value="待启动" style="whiteSpace=wrap;html=1;rounded=1;" vertex="1" parent="1">
          <mxGeometry x="220" y="270" width="120" height="60" as="geometry" />
        </mxCell>
        <mxCell id="Q3aqtfKfr0uPTEONbig2-10" value="开发完成" style="edgeStyle=orthogonalEdgeStyle;rounded=0;orthogonalLoop=1;jettySize=auto;html=1;" edge="1" parent="1" source="Q3aqtfKfr0uPTEONbig2-7" target="Q3aqtfKfr0uPTEONbig2-9">
          <mxGeometry relative="1" as="geometry" />
        </mxCell>
        <mxCell id="Q3aqtfKfr0uPTEONbig2-16" value="需求变更" style="edgeStyle=orthogonalEdgeStyle;rounded=0;orthogonalLoop=1;jettySize=auto;html=1;entryX=1;entryY=0.5;entryDx=0;entryDy=0;" edge="1" parent="1" source="Q3aqtfKfr0uPTEONbig2-7" target="Q3aqtfKfr0uPTEONbig2-3">
          <mxGeometry relative="1" as="geometry">
            <Array as="points">
              <mxPoint x="420" y="440" />
              <mxPoint x="420" y="160" />
            </Array>
          </mxGeometry>
        </mxCell>
        <mxCell id="Q3aqtfKfr0uPTEONbig2-7" value="开发中" style="whiteSpace=wrap;html=1;rounded=1;" vertex="1" parent="1">
          <mxGeometry x="220" y="410" width="120" height="60" as="geometry" />
        </mxCell>
        <mxCell id="Q3aqtfKfr0uPTEONbig2-12" value="上线" style="edgeStyle=orthogonalEdgeStyle;rounded=0;orthogonalLoop=1;jettySize=auto;html=1;entryX=0.5;entryY=0;entryDx=0;entryDy=0;entryPerimeter=0;" edge="1" parent="1" source="Q3aqtfKfr0uPTEONbig2-9" target="Q3aqtfKfr0uPTEONbig2-13">
          <mxGeometry relative="1" as="geometry">
            <mxPoint x="280" y="690" as="targetPoint" />
          </mxGeometry>
        </mxCell>
        <mxCell id="Q3aqtfKfr0uPTEONbig2-17" style="edgeStyle=orthogonalEdgeStyle;rounded=0;orthogonalLoop=1;jettySize=auto;html=1;" edge="1" parent="1" source="Q3aqtfKfr0uPTEONbig2-9">
          <mxGeometry relative="1" as="geometry">
            <mxPoint x="420" y="440" as="targetPoint" />
          </mxGeometry>
        </mxCell>
        <mxCell id="Q3aqtfKfr0uPTEONbig2-9" value="测试中" style="whiteSpace=wrap;html=1;rounded=1;" vertex="1" parent="1">
          <mxGeometry x="220" y="550" width="120" height="60" as="geometry" />
        </mxCell>
        <mxCell id="Q3aqtfKfr0uPTEONbig2-13" value="已上线" style="strokeWidth=2;html=1;shape=mxgraph.flowchart.terminator;whiteSpace=wrap;" vertex="1" parent="1">
          <mxGeometry x="230" y="700" width="100" height="60" as="geometry" />
        </mxCell>
      </root>
    </mxGraphModel>
  </diagram>
</mxfile>
